# xmcd
#
# Track frame offsets:
#	150
#	9757
#	19667
#	30287
#	39552
#	53067
#	68430
#	81967
#	95292
#	101680
#	117067
#	128665
#	142500
#	152610
#	169642
#	180660
#	188540
#	205642
#	221975
#	242605
#
# Disc length: 3401
#
# Revision: 1
# Processed by: cddbd v1.5.1PL0 Copyright (c) Steve Scherf et al.
# Submitted via: dBpowerAMP V4.0
# Normalized: r0:TDELIM( - ),TSWAP
#
DISCID=e70d4714
DTITLE=Music box blues - Vol 4
DYEAR=1900
DGENRE=blues
TTITLE0=Eric Clapton - Tribute to Elmore
TTITLE1=John Mayall - I'm your witchdoctor
TTITLE2=the all stars featuring jeff beck - Chuckies
TTITLE3=the all stars featuring Jimmy page - LA breakdown
TTITLE4=the all stars featuring Nicky Hopkins - Piano shuffle
TTITLE5=PP arnold - It'll never happen again
TTITLE6=the savoy brown blues band - I tried
TTITLE7=Rod stewart - Come home baby
TTITLE8=Eric Clapton - Choker
TTITLE9=Albert Lee - Water on my fire
TTITLE10=Chris Fairlowe - Moanin'
TTITLE11=TS McPhee - Ain't gonna cry no more
TTITLE12=Cyril Davies - Not face away
TTITLE13=albert Lee - Crosstown link
TTITLE14=Eric clapton - Snake drive
TTITLE15=Barbara Lynn - You can't buy my love
TTITLE16=the savoy brown blues band - Cold blooded woman
TTITLE17=Amen corner - Gin house
TTITLE18=chris farlowe - summertime
TTITLE19=eric clapton - Freight loader
EXTD=
EXTT0=
EXTT1=
EXTT2=
EXTT3=
EXTT4=
EXTT5=
EXTT6=
EXTT7=
EXTT8=
EXTT9=
EXTT10=
EXTT11=
EXTT12=
EXTT13=
EXTT14=
EXTT15=
EXTT16=
EXTT17=
EXTT18=
EXTT19=
PLAYORDER=
